<svg width="24" height="24" viewBox="0 0 24 24" fill="none" xmlns="http://www.w3.org/2000/svg">
<path d="M12.1875 6H16.1235C16.6142 6 17.0675 6.05867 17.4835 6.176C17.9102 6.29333 18.2728 6.46933 18.5715 6.704C18.8808 6.928 19.1208 7.22133 19.2915 7.584C19.4728 7.936 19.5635 8.352 19.5635 8.832C19.5635 9.48267 19.3822 10.016 19.0195 10.432C18.6568 10.8373 18.1875 11.136 17.6115 11.328V11.36C17.9528 11.3813 18.2728 11.472 18.5715 11.632C18.8702 11.7813 19.1262 11.984 19.3395 12.24C19.5635 12.4853 19.7395 12.7733 19.8675 13.104C19.9955 13.4347 20.0595 13.792 20.0595 14.176C20.0595 14.688 19.9528 15.1413 19.7395 15.536C19.5368 15.92 19.2542 16.2453 18.8915 16.512C18.5288 16.7787 18.1075 16.9813 17.6275 17.12C17.1475 17.2587 16.6302 17.328 16.0755 17.328H12.1875V6ZM13.7235 10.704H15.8195C16.1075 10.704 16.3795 10.6773 16.6355 10.624C16.8915 10.56 17.1155 10.4587 17.3075 10.32C17.4995 10.1813 17.6488 10.0053 17.7555 9.792C17.8728 9.57867 17.9315 9.31733 17.9315 9.008C17.9315 8.56 17.7875 8.17067 17.4995 7.84C17.2115 7.50933 16.7582 7.344 16.1395 7.344H13.7235V10.704ZM13.7235 15.984H15.9795C16.2142 15.984 16.4702 15.9627 16.7475 15.92C17.0355 15.8667 17.3022 15.7707 17.5475 15.632C17.7928 15.4827 18.0008 15.2853 18.1715 15.04C18.3422 14.7947 18.4275 14.4693 18.4275 14.064C18.4275 13.392 18.2088 12.8907 17.7715 12.56C17.3342 12.2187 16.7422 12.048 15.9955 12.048H13.7235V15.984Z" fill="white"/>
<path d="M3 6H10.12V7.44H4.536V10.992H9.736V12.432H4.536V17.328H3V6Z" fill="white"/>
</svg>
